<?xml version="1.0" encoding="UTF-8"?>
<svg id="Layer_2" xmlns="http://www.w3.org/2000/svg" xmlns:xlink="http://www.w3.org/1999/xlink" viewBox="0 0 1507.27 328.97">
  <defs>
    <style>
      .cls-1, .cls-2 {
        stroke-width: 5px;
      }

      .cls-1, .cls-2, .cls-3, .cls-4, .cls-5, .cls-6, .cls-7, .cls-8, .cls-9, .cls-10, .cls-11, .cls-12, .cls-13, .cls-14, .cls-15 {
        stroke-miterlimit: 10;
      }

      .cls-1, .cls-3, .cls-4, .cls-5, .cls-6, .cls-7, .cls-8, .cls-9, .cls-10, .cls-11, .cls-12, .cls-13, .cls-14, .cls-15 {
        stroke: #000;
      }

      .cls-2 {
        font-size: 231px;
        stroke: #15260d;
      }

      .cls-2, .cls-5 {
        fill: #0a5c41;
      }

      .cls-2, .cls-16 {
        font-family: MicrosoftSansSerif, 'Microsoft Sans Serif';
      }

      .cls-3 {
        stroke-dasharray: 13.86 13.86;
      }

      .cls-3, .cls-4, .cls-5, .cls-6, .cls-7, .cls-8, .cls-9, .cls-10, .cls-11, .cls-12, .cls-13, .cls-14, .cls-15 {
        stroke-width: 6px;
      }

      .cls-3, .cls-8, .cls-9, .cls-15 {
        fill: none;
      }

      .cls-4 {
        fill: url(#linear-gradient-2);
      }

      .cls-17, .cls-6 {
        fill: #a6d98c;
      }

      .cls-16 {
        font-size: 49.38px;
      }

      .cls-9 {
        stroke-dasharray: 15;
      }

      .cls-10 {
        fill: url(#linear-gradient);
      }

      .cls-11 {
        fill: #0d7351;
      }

      .cls-12 {
        fill: url(#linear-gradient-4);
      }

      .cls-18 {
        fill: #f0f9ec;
      }

      .cls-13 {
        fill: #c4e6b3;
      }

      .cls-14 {
        fill: url(#linear-gradient-3);
      }

      .cls-15 {
        stroke-dasharray: 27.95 27.95;
      }
    </style>
    <linearGradient id="linear-gradient" x1="172.96" y1="163.42" x2="283.58" y2="274.04" gradientUnits="userSpaceOnUse">
      <stop offset="0" stop-color="#fff"/>
      <stop offset=".72" stop-color="#abdb92"/>
      <stop offset=".91" stop-color="#a6d98c"/>
    </linearGradient>
    <linearGradient id="linear-gradient-2" x1="176.36" y1="51.15" x2="249.34" y2="51.15" gradientUnits="userSpaceOnUse">
      <stop offset="0" stop-color="#fff"/>
      <stop offset=".28" stop-color="#e1f2d9"/>
    </linearGradient>
    <linearGradient id="linear-gradient-3" x1="255.38" y1="51.14" x2="255.38" y2="124" xlink:href="#linear-gradient-2"/>
    <linearGradient id="linear-gradient-4" x1="23.29" y1="158.8" x2="127.74" y2="339.7" gradientUnits="userSpaceOnUse">
      <stop offset="0" stop-color="#fff"/>
      <stop offset=".54" stop-color="#a6d98c"/>
    </linearGradient>
  </defs>
  <g id="Layer_2-2" data-name="Layer_2">
    <circle class="cls-18" cx="164.43" cy="165.47" r="162.43"/>
    <path class="cls-10" d="M326.12,164.58c0,83.97-64.06,152.97-145.97,160.81-2.77.24-5.55.4-8.36.49-3.12-4.71-4.94-10.37-4.94-16.44v-61.45h55.78c10.05,0,18.2-8.14,18.2-18.19v-3.96c0-10.05-8.15-18.2-18.2-18.2h-55.78v-25.84c0-7.16,2.53-13.73,6.74-18.87.02-.03.04-.06.07-.09,5.45-6.33,13.53-10.34,22.54-10.34h129.47c.3,3.98.45,8.01.45,12.08Z"/>
    <path class="cls-6" d="M166.85,247.99v61.45c0,6.07,1.82,11.73,4.94,16.44-1.77.06-3.55.09-5.33.09v-143.72c0-7.37,2.68-14.12,7.13-19.32-4.21,5.14-6.74,11.71-6.74,18.87v25.84h55.78c10.05,0,18.2,8.15,18.2,18.2v3.96c0,10.05-8.15,18.19-18.2,18.19h-55.78Z"/>
    <path class="cls-6" d="M326.12,152.5v12.08c0-4.07-.15-8.1-.45-12.08h.45Z"/>
    <path class="cls-6" d="M326.12,164.58v1.73c0,83.57-64.2,152.14-145.97,159.08,81.91-7.84,145.97-76.84,145.97-160.81Z"/>
    <path class="cls-5" d="M325.32,148.27c-1.31-.24-2.64-.49-3.97-.76-23.68-4.79-44.63-13.25-62.9-23.51-14.42-8.09-27.16-17.31-38.27-26.72-3.85-3.27-7.49-6.55-10.95-9.82-14.25-13.5-25.18-26.76-32.87-37.11-4.08-5.49-7.24-10.16-9.51-13.61V3.04c82.68,1.14,150.35,64.4,158.47,145.23Z"/>
    <path class="cls-8" d="M152.06,3.49v28.11c-65.24,6.08-117,59.28-120.83,125.14H3.19C7.08,75.31,71.25,9.68,152.06,3.49Z"/>
    <circle class="cls-8" cx="56.48" cy="163.99" r="5.2"/>
    <path class="cls-8" d="M76.32,214.96c0,2.87-2.33,5.2-5.2,5.2s-5.21-2.33-5.21-5.2,2.33-5.2,5.21-5.2,5.2,2.33,5.2,5.2Z"/>
    <path class="cls-8" d="M76.32,114.13c0,2.87-2.33,5.2-5.2,5.2s-5.21-2.33-5.21-5.2,2.33-5.2,5.21-5.2,5.2,2.33,5.2,5.2Z"/>
    <path class="cls-8" d="M111.53,250.96c0,2.87-2.33,5.2-5.2,5.2s-5.21-2.33-5.21-5.2,2.33-5.2,5.21-5.2,5.2,2.33,5.2,5.2Z"/>
    <path class="cls-8" d="M111.53,79.16c0,2.87-2.33,5.2-5.2,5.2s-5.21-2.33-5.21-5.2,2.33-5.21,5.21-5.21,5.2,2.33,5.2,5.21Z"/>
    <path class="cls-8" d="M160.24,63.7c0,2.88-2.33,5.21-5.2,5.21s-5.21-2.33-5.21-5.21,2.33-5.2,5.21-5.2,5.2,2.33,5.2,5.2Z"/>
    <path class="cls-8" d="M152.06,297.56v28.1C70.6,319.43,6.04,252.79,3.11,170.45h28.02c2.9,66.76,55.04,120.97,120.93,127.11Z"/>
    <path class="cls-8" d="M325.64,151.99h-128.98c-16.46,0-29.81,13.35-29.81,29.81v45.98c-3.08.46-6.23.69-9.44.69-35.61,0-64.48-28.87-64.48-64.48,0-10.65,2.58-20.69,7.16-29.54,10.7-20.75,32.35-34.94,57.32-34.94,3.21,0,6.36.23,9.44.69v49.81h158.63c.05.66.11,1.32.16,1.98Z"/>
    <circle class="cls-8" cx="56.48" cy="163.99" r="5.2"/>
    <path class="cls-8" d="M76.32,214.96c0,2.87-2.33,5.2-5.2,5.2s-5.21-2.33-5.21-5.2,2.33-5.2,5.21-5.2,5.2,2.33,5.2,5.2Z"/>
    <path class="cls-8" d="M76.32,114.13c0,2.87-2.33,5.2-5.2,5.2s-5.21-2.33-5.21-5.2,2.33-5.2,5.21-5.2,5.2,2.33,5.2,5.2Z"/>
    <path class="cls-8" d="M111.53,250.96c0,2.87-2.33,5.2-5.2,5.2s-5.21-2.33-5.21-5.2,2.33-5.2,5.21-5.2,5.2,2.33,5.2,5.2Z"/>
    <path class="cls-8" d="M111.53,79.16c0,2.87-2.33,5.2-5.2,5.2s-5.21-2.33-5.21-5.2,2.33-5.21,5.21-5.21,5.2,2.33,5.2,5.21Z"/>
    <path class="cls-8" d="M160.24,63.7c0,2.88-2.33,5.21-5.2,5.21s-5.21-2.33-5.21-5.21,2.33-5.2,5.21-5.2,5.2,2.33,5.2,5.2Z"/>
    <path class="cls-8" d="M297.53,151.99h-100.87c-16.46,0-29.81,13.35-29.81,29.81v45.98c-3.08.46-6.23.69-9.44.69-35.61,0-64.48-28.87-64.48-64.48,0-10.65,2.58-20.69,7.16-29.54,10.7-20.75,32.35-34.94,57.32-34.94,3.21,0,6.36.23,9.44.69v49.81h130.47c.08.66.15,1.32.21,1.98Z"/>
    <line class="cls-8" x1="31.24" y1="156.74" x2="31.23" y2="156.74"/>
    <path class="cls-6" d="M227.79,226.83c0,4.91-3.99,8.9-8.9,8.9s-8.9-3.99-8.9-8.9,3.98-8.9,8.9-8.9,8.9,3.98,8.9,8.9Z"/>
    <path class="cls-6" d="M325.67,152.5h-129.47c-9.01,0-17.09,4.01-22.54,10.34,5.47-6.63,13.74-10.85,23-10.85h128.98c.01.17.03.34.03.51Z"/>
    <g>
      <path class="cls-17" d="M227.79,226.83c0,4.91-3.99,8.9-8.9,8.9s-8.9-3.99-8.9-8.9,3.98-8.9,8.9-8.9,8.9,3.98,8.9,8.9Z"/>
      <path class="cls-15" d="M227.79,226.83c0,4.91-3.99,8.9-8.9,8.9s-8.9-3.99-8.9-8.9,3.98-8.9,8.9-8.9,8.9,3.98,8.9,8.9Z"/>
    </g>
    <path class="cls-6" d="M227.79,226.83c0,4.91-3.99,8.9-8.9,8.9s-8.9-3.99-8.9-8.9,3.98-8.9,8.9-8.9,8.9,3.98,8.9,8.9Z"/>
    <path class="cls-6" d="M227.79,226.83c0,4.91-3.99,8.9-8.9,8.9s-8.9-3.99-8.9-8.9,3.98-8.9,8.9-8.9,8.9,3.98,8.9,8.9Z"/>
    <path class="cls-8" d="M201.27,115.07c0,.52-.06,1.02-.18,1.5-.67,2.99-3.35,5.23-6.54,5.23-3.72,0-6.73-3.02-6.73-6.73,0-2.55,1.42-4.78,3.52-5.92.96-.51,2.05-.81,3.21-.81,3.71,0,6.72,3.02,6.72,6.73Z"/>
    <path class="cls-8" d="M325.32,148.27c-1.31-.24-2.64-.49-3.97-.76-23.68-4.79-44.63-13.25-62.9-23.51-14.42-8.09-27.16-17.31-38.27-26.72-3.85-3.27-7.49-6.55-10.95-9.82-14.25-13.5-25.18-26.76-32.87-37.11-4.08-5.49-7.24-10.16-9.51-13.61V3.04c82.68,1.14,150.35,64.4,158.47,145.23Z"/>
    <path class="cls-7" d="M201.27,115.07c0,.52-.06,1.02-.18,1.5-.67,2.99-3.35,5.23-6.54,5.23-3.72,0-6.73-3.02-6.73-6.73,0-2.55,1.42-4.78,3.52-5.92.96-.51,2.05-.81,3.21-.81,3.71,0,6.72,3.02,6.72,6.73Z"/>
    <path class="cls-4" d="M249.34,51.14c0,.17,0,.33-.01.5-.04,3.72-.65,7.29-1.73,10.66h0c-3.02,9.4-9.73,17.13-18.42,21.49-3.19,1.6-6.64,2.74-10.28,3.35-1.97.33-4,.5-6.06.5-1.22,0-2.42-.06-3.61-.18-14.25-13.5-25.18-26.76-32.87-37.11.42-19.79,16.59-35.7,36.48-35.7s36.5,16.34,36.5,36.49Z"/>
    <path class="cls-8" d="M212.84,77.64c-14.61,0-26.49-11.89-26.49-26.49s11.88-26.49,26.49-26.49,26.49,11.89,26.49,26.49-11.88,26.49-26.49,26.49Z"/>
    <text class="cls-16" transform="translate(198.29 69.66) scale(1.11 1)"><tspan x="0" y="0">$</tspan></text>
    <path class="cls-14" d="M291.88,87.64c0,19.12-14.71,34.8-33.43,36.36-14.42-8.09-27.16-17.31-38.27-26.72-.84-3.07-1.29-6.3-1.29-9.64,0-.17,0-.33.01-.5.04-3.72.65-7.3,1.73-10.67,3.02-9.39,9.73-17.12,18.42-21.48,3.18-1.6,6.64-2.74,10.28-3.35,1.97-.33,3.99-.5,6.05-.5,20.16,0,36.5,16.34,36.5,36.5Z"/>
    <path class="cls-8" d="M255.38,114.13c-14.61,0-26.49-11.89-26.49-26.49s11.88-26.49,26.49-26.49,26.49,11.89,26.49,26.49-11.88,26.49-26.49,26.49Z"/>
    <text class="cls-16" transform="translate(240.83 106.16) scale(1.11 1)"><tspan x="0" y="0">$</tspan></text>
    <path class="cls-8" d="M201.09,116.57c-.67,2.99-3.35,5.23-6.54,5.23-3.72,0-6.73-3.02-6.73-6.73,0-2.55,1.42-4.78,3.52-5.92,3.48,2.16,6.75,4.65,9.75,7.42Z"/>
    <path class="cls-8" d="M220.77,151.99h-24.11c-16.46,0-29.81,13.35-29.81,29.81v45.98c-3.08.46-6.23.69-9.44.69-35.61,0-64.48-28.87-64.48-64.48,0-10.65,2.58-20.69,7.16-29.54,10.7-20.75,32.35-34.94,57.32-34.94,3.21,0,6.36.23,9.44.69v49.81h53.52c.15.65.28,1.32.4,1.98Z"/>
    <circle class="cls-13" cx="155.03" cy="164.58" r="13.4"/>
    <path class="cls-1" d="M111.53,79.16c0,2.87-2.33,5.2-5.2,5.2s-5.21-2.33-5.21-5.2,2.33-5.21,5.21-5.21,5.2,2.33,5.2,5.21Z"/>
    <path class="cls-7" d="M160.24,63.7c0,2.88-2.33,5.21-5.2,5.21s-5.21-2.33-5.21-5.21,2.33-5.2,5.21-5.2,5.2,2.33,5.2,5.2Z"/>
    <path class="cls-7" d="M76.32,114.13c0,2.87-2.33,5.2-5.2,5.2s-5.21-2.33-5.21-5.2,2.33-5.2,5.21-5.2,5.2,2.33,5.2,5.2Z"/>
    <circle class="cls-7" cx="56.48" cy="163.99" r="5.2"/>
    <path class="cls-7" d="M76.32,214.96c0,2.87-2.33,5.2-5.2,5.2s-5.21-2.33-5.21-5.2,2.33-5.2,5.21-5.2,5.2,2.33,5.2,5.2Z"/>
    <path class="cls-7" d="M111.53,250.96c0,2.87-2.33,5.2-5.2,5.2s-5.21-2.33-5.21-5.2,2.33-5.2,5.21-5.2,5.2,2.33,5.2,5.2Z"/>
    <circle class="cls-8" cx="56.48" cy="163.99" r="5.2" transform="translate(-114.44 193.47) rotate(-80.78)"/>
    <path class="cls-8" d="M76.32,214.96c0,2.87-2.33,5.2-5.2,5.2s-5.21-2.33-5.21-5.2,2.33-5.2,5.21-5.2,5.2,2.33,5.2,5.2Z"/>
    <path class="cls-8" d="M76.32,114.13c0,2.87-2.33,5.2-5.2,5.2s-5.21-2.33-5.21-5.2,2.33-5.2,5.21-5.2,5.2,2.33,5.2,5.2Z"/>
    <path class="cls-8" d="M106.33,256.16c-2.88,0-5.21-2.33-5.21-5.2s2.33-5.2,5.21-5.2,5.2,2.33,5.2,5.2-2.33,5.2-5.2,5.2Z"/>
    <path class="cls-8" d="M106.33,73.95c2.87,0,5.2,2.33,5.2,5.21s-2.33,5.2-5.2,5.2-5.21-2.33-5.21-5.2,2.33-5.21,5.21-5.21Z"/>
    <path class="cls-6" d="M31.23,156.74H3.19C7.08,75.31,71.25,9.68,152.06,3.49v28.11c-65.24,6.08-117,59.28-120.83,125.14Z"/>
    <path class="cls-12" d="M152.06,297.56v28.1C70.6,319.43,6.04,252.79,3.11,170.45h28.02c2.9,66.76,55.04,120.97,120.93,127.11Z"/>
    <path class="cls-8" d="M155.04,58.5c2.87,0,5.2,2.33,5.2,5.2s-2.33,5.21-5.2,5.21-5.21-2.33-5.21-5.21,2.33-5.2,5.21-5.2Z"/>
    <path class="cls-11" d="M325.32,148.27c-1.31-.24-2.64-.49-3.97-.76-23.68-4.79-44.63-13.25-62.9-23.51-14.42-8.09-27.16-17.31-38.27-26.72-3.85-3.27-7.49-6.55-10.95-9.82-14.25-13.5-25.18-26.76-32.87-37.11-4.08-5.49-7.24-10.16-9.51-13.61v113.27h158.63c-.05-.58-.11-1.16-.16-1.74ZM201.09,116.57c-.67,2.99-3.35,5.23-6.54,5.23-3.72,0-6.73-3.02-6.73-6.73,0-2.55,1.42-4.78,3.52-5.92.96-.51,2.05-.81,3.21-.81,3.71,0,6.72,3.02,6.72,6.73,0,.52-.06,1.02-.18,1.5Z"/>
    <path class="cls-8" d="M201.27,115.07c0,.52-.06,1.02-.18,1.5-.67,2.99-3.35,5.23-6.54,5.23-3.72,0-6.73-3.02-6.73-6.73,0-2.55,1.42-4.78,3.52-5.92.96-.51,2.05-.81,3.21-.81,3.71,0,6.72,3.02,6.72,6.73Z"/>
    <line class="cls-9" x1="182.68" y1="177.98" x2="182.68" y2="324.98"/>
    <path class="cls-6" d="M222.63,207.64h-55.78v40.35h55.78c10.05,0,18.2-8.14,18.2-18.19v-3.96c0-10.05-8.15-18.2-18.2-18.2ZM218.89,235.73c-4.92,0-8.9-3.99-8.9-8.9s3.98-8.9,8.9-8.9,8.9,3.98,8.9,8.9-3.99,8.9-8.9,8.9Z"/>
    <path class="cls-6" d="M218.89,235.73c-4.92,0-8.9-3.99-8.9-8.9s3.98-8.9,8.9-8.9,8.9,3.98,8.9,8.9-3.99,8.9-8.9,8.9Z"/>
    <line class="cls-8" x1="65.91" y1="114.13" x2="141.64" y2="159.15"/>
    <g>
      <line class="cls-8" x1="326.12" y1="169.19" x2="318.62" y2="169.19"/>
      <line class="cls-3" x1="304.76" y1="169.19" x2="200.78" y2="169.19"/>
      <line class="cls-8" x1="193.85" y1="169.19" x2="186.35" y2="169.19"/>
    </g>
    <text class="cls-2" transform="translate(345.6 244.99)"><tspan x="0" y="0">TimeWallet</tspan></text>
  </g>
</svg>